<mxfile host="app.diagrams.net" modified="2024-02-25T06:22:39.245Z" agent="Mozilla/5.0 (Macintosh; Intel Mac OS X 10_15_7) AppleWebKit/537.36 (KHTML, like Gecko) Chrome/121.0.0.0 Safari/537.36" version="23.1.5" etag="Gx2tycsND6EMfUTFfQen" type="github">
  <diagram name="Page-1" id="GT-rMD_Tsqchch-xSNWy">
    <mxGraphModel>
      <root>
        <mxCell id="0" />
        <mxCell id="1" parent="0" />
      </root>
    </mxGraphModel>
  </diagram>
</mxfile>
